<svg xmlns="http://www.w3.org/2000/svg" aria-hidden="true" style="position:absolute;width:0;height:0;overflow:hidden">
  <defs>
  <symbol id="icon-dagger" viewBox="0 0 32 32">
      <path fill="none" stroke="#111" stroke-linecap="round" stroke-linejoin="round" stroke-width="2.667" d="M24 8 8 24M8 8l16 16"/>
    </symbol>
    <symbol id="icon-tel" viewBox="0 0 32 32">
      <path fill="none"  stroke-linecap="round" stroke-linejoin="round" stroke-width="2.824" d="M29.333 22.56v4a2.67 2.67 0 0 1-1.812 2.537 2.7 2.7 0 0 1-1.094.13 26.4 26.4 0 0 1-11.507-4.093 26 26 0 0 1-8-8 26.4 26.4 0 0 1-4.093-11.56 2.66 2.66 0 0 1 .687-2.038 2.66 2.66 0 0 1 1.967-.868h4a2.67 2.67 0 0 1 2.667 2.294 17.2 17.2 0 0 0 .933 3.747 2.68 2.68 0 0 1-.6 2.814l-1.693 1.693a21.33 21.33 0 0 0 8 8l1.693-1.693a2.67 2.67 0 0 1 2.813-.6 17.2 17.2 0 0 0 3.747.933 2.665 2.665 0 0 1 2.293 2.707z"/>
    </symbol>
    <symbol id="icon-mail" viewBox="0 0 32 32">
      <path fill="none"  stroke-linecap="round" stroke-linejoin="round" stroke-width="2.824" d="M5.333 5.333h21.333c1.467 0 2.667 1.2 2.667 2.667v16c0 1.467-1.2 2.667-2.667 2.667H5.333A2.675 2.675 0 0 1 2.666 24V8c0-1.467 1.2-2.667 2.667-2.667"/>
      <path fill="none"  stroke-linecap="round" stroke-linejoin="round" stroke-width="2.824" d="M29.333 8 16 17.333 2.667 8"/>
    </symbol>
    <symbol id="icon-user" viewBox="0 0 32 32">
      <path fill="none" stroke="#111" stroke-linecap="round" stroke-linejoin="round" stroke-width="2.824" d="M26.667 28v-2.667A5.334 5.334 0 0 0 21.334 20H10.667a5.334 5.334 0 0 0-5.333 5.333V28M16 14.667a5.333 5.333 0 1 0 0-10.666 5.333 5.333 0 0 0 0 10.666" style="stroke:var(--color2,)"/>
    </symbol>
    <symbol id="icon-checkmark" viewBox="0 0 32 32">
      <path fill="#fff" d="M12.636 30.427q2.092 0 3.163-1.607L31.247 5.54q.385-.569.569-1.121Q32 3.85 32 3.331q0-1.44-1.004-2.377Q30.009 0 28.552 0q-1.003 0-1.707.402-.686.385-1.305 1.339L12.569 22.109l-6.494-7.782q-1.054-1.222-2.644-1.222-1.49 0-2.46.954C.001 15.013 0 15.493 0 16.452q0 .653.201 1.238.217.569.787 1.188l8.619 10.159q1.188 1.389 3.029 1.389z" style="fill:var(--color1, #fff)"/>
    </symbol>

    <symbol id="icon-twitter" viewBox="0 0 38 32">
      <path stroke-linecap="round" stroke-linejoin="round" stroke-width="3.2" d="M36.8 1.616a17.5 17.5 0 0 1-5.024 2.448 7.17 7.17 0 0 0-7.965-1.993 7.17 7.17 0 0 0-4.612 6.793v1.6c-2.812.073-5.598-.551-8.11-1.815s-5.473-4.276-7.09-6.578c0 0-5.6 15.545 8.8 21.945a18.63 18.63 0 0 1-11.2 3.2c14.4 8 32 0 32-18.4a7 7 0 0 0-.128-1.328 12.35 12.35 0 0 0 3.328-5.872z"/>
    </symbol>
    <symbol id="icon-chocolate-bar" viewBox="0 0 32 32">
      <path d="m13.511.473 8.602 8.613.091-.091a.98.98 0 0 1 1.354-.015l.998.998c.349.349.36.88.095 1.25l-.005.008-.163.219 7.04 7.04a1.593 1.593 0 0 1 0 2.263L20.746 31.535a1.593 1.593 0 0 1-2.263 0l-5.082-5.082a.95.95 0 0 1-.7.362.96.96 0 0 1-.736-.282l-2.971-2.971a.98.98 0 0 1-.015-1.354l.007-.008.088-.087-8.602-8.602a1.593 1.593 0 0 1 0-2.263L11.249.471a1.593 1.593 0 0 1 2.263 0v.001zm7.523 9.691-2.007-2.006a.676.676 0 0 0-.972 0l-4.091 4.091a.69.69 0 0 0-.204.491.7.7 0 0 0 .204.491l1.999 1.999.697-.697-1.789-1.789 3.669-3.68 1.793 1.799.701-.701zm-5.801 5.797-2.005-2.005a.676.676 0 0 0-.972 0l-4.103 4.103a.676.676 0 0 0 0 .971l2.002 2.002.704-.704-1.794-1.787 3.68-3.669 1.787 1.786.699-.698zM7.797 7.078l4.091 4.091a.667.667 0 0 0 .971-.011l4.091-4.091a.65.65 0 0 0 .206-.48h.011a.7.7 0 0 0-.206-.491L12.87 2.005a.69.69 0 0 0-.982 0L7.797 6.108a.676.676 0 0 0 0 .971zm-5.794 5.795 4.091 4.091a.676.676 0 0 0 .971 0l4.091-4.091a.67.67 0 0 0 .205-.491h.011a.68.68 0 0 0-.206-.491L7.075 7.8a.676.676 0 0 0-.972 0L2 11.903a.676.676 0 0 0 0 .971zm7.923 10.004 2.699 2.701 11.013-14.903-.749-.749z" style="fill:var(--color1, #000)"/>
      <path fill="#fd9222" d="m13.511.473 8.602 8.613.091-.091a.98.98 0 0 1 1.354-.015l.998.998c.349.349.36.88.095 1.25l-.005.008-.163.219 7.04 7.04a1.593 1.593 0 0 1 0 2.263L20.746 31.535a1.593 1.593 0 0 1-2.263 0l-5.082-5.082a.95.95 0 0 1-.7.362.96.96 0 0 1-.736-.282l-2.971-2.971a.98.98 0 0 1-.015-1.354l.007-.008.088-.087-8.602-8.602a1.593 1.593 0 0 1 0-2.263L11.249.471a1.593 1.593 0 0 1 2.263 0v.001zm7.523 9.691-2.007-2.006a.676.676 0 0 0-.972 0l-4.091 4.091a.69.69 0 0 0-.204.491.7.7 0 0 0 .204.491l1.999 1.999.697-.697-1.789-1.789 3.669-3.68 1.793 1.799.701-.701zm-5.801 5.797-2.005-2.005a.676.676 0 0 0-.972 0l-4.103 4.103a.676.676 0 0 0 0 .971l2.002 2.002.704-.704-1.794-1.787 3.68-3.669 1.787 1.786.699-.698zM7.797 7.078l4.091 4.091a.667.667 0 0 0 .971-.011l4.091-4.091a.65.65 0 0 0 .206-.48h.011a.7.7 0 0 0-.206-.491L12.87 2.005a.69.69 0 0 0-.982 0L7.797 6.108a.676.676 0 0 0 0 .971zm-5.794 5.795 4.091 4.091a.676.676 0 0 0 .971 0l4.091-4.091a.67.67 0 0 0 .205-.491h.011a.68.68 0 0 0-.206-.491L7.075 7.8a.676.676 0 0 0-.972 0L2 11.903a.676.676 0 0 0 0 .971zm7.923 10.004 2.699 2.701 11.013-14.903-.749-.749z" style="fill:var(--color2, #fd9222)"/>
    </symbol>
    <symbol id="icon-coin" viewBox="0 0 32 32">
      <path fill="#fd9222" d="M15.802 0C7.111 0 0 7.111 0 15.802s7.111 15.803 15.802 15.803 15.803-7.111 15.803-15.803S24.494 0 15.802 0m0 28.444c-6.953 0-12.642-5.689-12.642-12.642S8.849 3.16 15.802 3.16s12.642 5.689 12.642 12.642-5.689 12.642-12.642 12.642" style="fill:var(--color2, #fd9222)"/>
      <path fill="#fd9222" d="M17.857 14.222h-4.109c-.79 0-1.422-.632-1.422-1.422s.632-1.422 1.422-1.422h5.847c.948 0 1.58-.632 1.58-1.58s-.632-1.58-1.58-1.58h-2.212V6.796c0-.948-.632-1.58-1.58-1.58s-1.58.632-1.58 1.58v1.422h-.474c-2.528 0-4.583 2.054-4.583 4.583s2.054 4.583 4.583 4.583H17.7c.79 0 1.422.632 1.422 1.422s-.632 1.422-1.422 1.422h-5.847c-.948 0-1.58.632-1.58 1.58s.632 1.58 1.58 1.58h2.37v1.422c0 .948.632 1.58 1.58 1.58s1.58-.632 1.58-1.58v-1.422h.474c2.528 0 4.583-2.054 4.583-4.583s-2.054-4.583-4.583-4.583" style="fill:var(--color2, #fd9222)"/>
    </symbol>
    <symbol id="icon-spoon" viewBox="0 0 32 32">
      <path fill="#fd9222" d="M15.165 13.628a5.9 5.9 0 0 1-1.345-3.751C13.82 4.936 19.741 0 25.662 0a5.923 5.923 0 0 1 5.921 5.922c0 5.922-4.934 11.845-9.881 11.845a5.9 5.9 0 0 1-3.75-1.345L3.371 31.006a1.977 1.977 0 0 1-2.794-2.795l14.587-14.584z" style="fill:var(--color2, #fd9222)"/>
    </symbol>
    <symbol id="icon-checkmark" viewBox="0 0 32 32">
      <path fill="#fd9222" d="M17.399 18.409a2.257 2.257 0 0 1-3.204 0L3.861 8.052a2.257 2.257 0 1 0-3.204 3.182l10.357 10.357a6.77 6.77 0 0 0 9.568 0l10.357-10.357a2.259 2.259 0 0 0-3.204-3.181L17.401 18.41z" style="fill:var(--color2, #fd9222)"/>
    </symbol>
    <symbol id="icon-chocolate-logo" viewBox="0 0 32 32">
      <path fill="none" stroke="#fd9222" stroke-linecap="round" stroke-linejoin="round" stroke-width="2.667" d="M22.091 23.038 7.906 14.174m3.911-6.417 14.185 8.864m-14.916 8.402 11.736-19.25m4.811 8.174c-3.04-1.899-4.234-3.384-2.278-6.592L15.729 1.34 3.993 20.59l14.185 8.864z" style="stroke:var(--color2, #fd9222)"/>
    </symbol>
    <symbol id="icon-instagram" viewBox="0 0 32 32">
      <path fill="none" stroke="#111111"  stroke-linecap="round" stroke-linejoin="round" stroke-width="2.667" d="M22.667 2.667H9.334a6.667 6.667 0 0 0-6.667 6.667v13.333a6.667 6.667 0 0 0 6.667 6.667h13.333a6.667 6.667 0 0 0 6.667-6.667V9.334a6.667 6.667 0 0 0-6.667-6.667"/>
      <path fill="none"  stroke="#111111"   stroke-linecap="round" stroke-linejoin="round" stroke-width="2.667" d="M21.333 15.16a5.33 5.33 0 0 1-2.878 5.546 5.34 5.34 0 0 1-6.169-.992 5.33 5.33 0 0 1 1.316-8.505 5.34 5.34 0 0 1 6.228.962 5.33 5.33 0 0 1 1.504 2.989zM23.333 8.667h.013"/>
    </symbol>
      <symbol id="icon-dagger" viewBox="0 0 32 32">
      <path fill="none" stroke="#fff" stroke-linecap="round" stroke-linejoin="round" stroke-width="4.571" d="M28.952 2.286 2.285 28.953m.001-26.667 26.667 26.667" style="stroke:var(--color1, #fff)"/>
    </symbol>
    <symbol id="icon-burger-menu" viewBox="0 0 46 32">
      <path fill="none" stroke="#111111" stroke-linecap="round" stroke-linejoin="round" stroke-width="4" d="M2 16h42M2 2h42M2 30h42"/>
    </symbol>
  </defs>
</svg>
